<svg width="8" height="14" viewBox="0 0 8 14" fill="none" xmlns="http://www.w3.org/2000/svg">
<path d="M0.939759 0.299395C0.752288 0.48709 0.646973 0.741627 0.646973 1.00703C0.646973 1.27243 0.752288 1.52697 0.939759 1.71466L5.52576 6.30476C5.70825 6.49506 5.81015 6.74862 5.81015 7.01239C5.81015 7.27616 5.70825 7.52972 5.52576 7.72002L0.939759 12.3101C0.757601 12.4989 0.656807 12.7517 0.659085 13.0142C0.661364 13.2766 0.766532 13.5276 0.951941 13.7132C1.13735 13.8988 1.38816 14.004 1.65036 14.0063C1.91256 14.0086 2.16516 13.9077 2.35376 13.7254L6.93976 9.13629C7.21839 8.85746 7.43941 8.52642 7.59021 8.16208C7.741 7.79775 7.81862 7.40725 7.81862 7.01289C7.81862 6.61853 7.741 6.22803 7.59021 5.8637C7.43941 5.49936 7.21839 5.16833 6.93976 4.88949L2.35376 0.299395C2.16623 0.111756 1.91192 0.00634764 1.64676 0.00634766C1.38159 0.00634767 1.12729 0.111756 0.939759 0.299395Z" fill="#1A1B22"/>
</svg>
