<svg width="8" height="15" viewBox="0 0 8 15" fill="none" xmlns="http://www.w3.org/2000/svg">
<path d="M7.54613 1.4346C7.54607 1.6998 7.44068 1.95411 7.25313 2.1416L2.66713 6.7276C2.48464 6.91773 2.38274 7.17106 2.38274 7.4346C2.38274 7.69814 2.48464 7.95147 2.66713 8.1416L7.25313 12.7276C7.43529 12.9162 7.53608 13.1688 7.53381 13.431C7.53153 13.6932 7.42636 13.944 7.24095 14.1294C7.05554 14.3148 6.80473 14.42 6.54253 14.4223C6.28034 14.4246 6.02773 14.3238 5.83913 14.1416L1.25313 9.5556C0.707659 8.98398 0.40332 8.22422 0.40332 7.4341C0.40332 6.64398 0.707658 5.88422 1.25313 5.3126L5.83913 0.7276C5.97898 0.587791 6.15715 0.492585 6.3511 0.454018C6.54505 0.41545 6.74609 0.435254 6.92879 0.510924C7.11149 0.586594 7.26765 0.714733 7.37753 0.879143C7.48742 1.04355 7.54609 1.23685 7.54613 1.4346Z" fill="#1A1B22"/>
</svg>
