<svg width="44" height="44" viewBox="0 0 44 44" fill="none" xmlns="http://www.w3.org/2000/svg">
<path fill-rule="evenodd" clip-rule="evenodd" d="M21.9996 2C33.0453 2 41.9996 10.9543 41.9996 22H43.9996C43.9996 26.3512 42.7093 30.6047 40.2919 34.2225C37.8745 37.8404 34.4386 40.6602 30.4186 42.3253C27.7785 43.4189 24.9644 43.9822 22.1348 43.9996C34.2228 43.9269 43.9996 34.1052 43.9996 22C43.9996 9.84974 34.1498 0 21.9996 0C9.89441 0 0.0727259 9.77676 -9.7634e-06 21.8648C0.0173978 19.0351 0.580681 16.221 1.67423 13.581C3.33936 9.56099 6.15916 6.12506 9.77704 3.70767C13.3949 1.29028 17.6484 0 21.9996 0V2ZM9.57903e-05 22.1517C0.0400275 28.066 2.41371 33.426 6.24629 37.3569C3.27702 34.311 1.25294 30.4679 0.422308 26.292C0.149757 24.9218 0.00962732 23.5355 9.57903e-05 22.1517ZM6.50991 37.6227C10.4518 41.5313 15.865 43.9584 21.8451 43.9995C20.4622 43.9898 19.0769 43.8496 17.7076 43.5773C13.4708 42.7345 9.57653 40.6633 6.50991 37.6227ZM22.1205 41.9996C22.0802 41.9999 22.0399 42 21.9996 42C21.9537 42 21.9079 41.9998 21.8622 41.9995C21.9483 42.0001 22.0344 42.0002 22.1205 41.9996ZM2.00005 22.1374C1.99974 22.0917 1.99958 22.0458 1.99958 22C1.99958 21.9597 1.9997 21.9194 1.99994 21.8791C1.99942 21.9652 1.99945 22.0513 2.00005 22.1374Z" fill="#F49292"/>
</svg>
