<svg width="44" height="44" viewBox="0 0 44 44" fill="none" xmlns="http://www.w3.org/2000/svg">
<path fill-rule="evenodd" clip-rule="evenodd" d="M41.9995 22C41.9995 33.0457 33.0452 42 21.9995 42V44C16.1647 44 10.569 41.6821 6.44316 37.5563C2.31736 33.4305 -0.000488281 27.8348 -0.000488281 22C-0.000488281 16.1652 2.31736 10.5695 6.44316 6.44365C10.569 2.31785 16.1647 0 21.9995 0V2C33.0452 2 41.9995 10.9543 41.9995 22ZM21.9995 0C9.84925 0 -0.000488281 9.84974 -0.000488281 22C-0.000488281 34.1503 9.84925 44 21.9995 44C34.1498 44 43.9995 34.1503 43.9995 22C43.9995 9.84974 34.1498 0 21.9995 0Z" fill="#FFCE92"/>
</svg>
