<svg width="25" height="25" viewBox="0 0 25 25" fill="none" xmlns="http://www.w3.org/2000/svg">
<rect x="1.5" y="1" width="23" height="23" rx="3.5" fill="white" stroke="#1D6BF3"/>
<path d="M10.304 16.4191L6.38501 12.5001C6.19748 12.3126 5.94317 12.2073 5.67801 12.2073C5.41284 12.2073 5.15854 12.3126 4.97101 12.5001C4.78354 12.6876 4.67822 12.9419 4.67822 13.2071C4.67822 13.4722 4.78354 13.7265 4.97101 13.9141L8.89001 17.8331C9.07574 18.0189 9.29625 18.1662 9.53896 18.2668C9.78166 18.3674 10.0418 18.4191 10.3045 18.4191C10.5672 18.4191 10.8274 18.3674 11.0701 18.2668C11.3128 18.1662 11.5333 18.0189 11.719 17.8331L20.971 8.58105C21.1585 8.39353 21.2638 8.13922 21.2638 7.87405C21.2638 7.60889 21.1585 7.35458 20.971 7.16705C20.7835 6.97958 20.5292 6.87427 20.264 6.87427C19.9988 6.87427 19.7445 6.97958 19.557 7.16705L10.304 16.4191Z" fill="#1D6BF3"/>
</svg>
