<svg width="20" height="20" viewBox="0 0 20 20" fill="none" xmlns="http://www.w3.org/2000/svg">
<path d="M19.7557 0.244202C19.5994 0.0879765 19.3875 0.000213623 19.1665 0.000213623C18.9455 0.000213623 18.7336 0.0879765 18.5773 0.244202L9.99982 8.8217L1.42232 0.244202C1.26605 0.0879765 1.05413 0.000213623 0.833155 0.000213623C0.612185 0.000213623 0.400262 0.0879765 0.243989 0.244202V0.244202C0.0877629 0.400475 0 0.612399 0 0.833369C0 1.05434 0.0877629 1.26626 0.243989 1.42254L8.82149 10L0.243989 18.5775C0.0877629 18.7338 0 18.9457 0 19.1667C0 19.3877 0.0877629 19.5996 0.243989 19.7559V19.7559C0.400262 19.9121 0.612185 19.9999 0.833155 19.9999C1.05413 19.9999 1.26605 19.9121 1.42232 19.7559L9.99982 11.1784L18.5773 19.7559C18.7336 19.9121 18.9455 19.9999 19.1665 19.9999C19.3875 19.9999 19.5994 19.9121 19.7557 19.7559C19.9119 19.5996 19.9996 19.3877 19.9996 19.1667C19.9996 18.9457 19.9119 18.7338 19.7557 18.5775L11.1782 10L19.7557 1.42254C19.9119 1.26626 19.9996 1.05434 19.9996 0.833369C19.9996 0.612399 19.9119 0.400475 19.7557 0.244202V0.244202Z" fill="white"/>
</svg>
