<svg width="16" height="17" viewBox="0 0 16 17" fill="none" xmlns="http://www.w3.org/2000/svg">
<g clip-path="url(#clip0_1_988)">
<path d="M13.9999 3.16667H11.9333C11.7785 2.41428 11.3691 1.73823 10.7741 1.25248C10.179 0.766727 9.43472 0.50097 8.66659 0.5L7.33325 0.5C6.56512 0.50097 5.8208 0.766727 5.22575 1.25248C4.63071 1.73823 4.22132 2.41428 4.06659 3.16667H1.99992C1.82311 3.16667 1.65354 3.2369 1.52851 3.36193C1.40349 3.48695 1.33325 3.65652 1.33325 3.83333C1.33325 4.01014 1.40349 4.17971 1.52851 4.30474C1.65354 4.42976 1.82311 4.5 1.99992 4.5H2.66659V13.1667C2.66764 14.0504 3.01917 14.8976 3.64407 15.5225C4.26896 16.1474 5.11619 16.4989 5.99992 16.5H9.99992C10.8836 16.4989 11.7309 16.1474 12.3558 15.5225C12.9807 14.8976 13.3322 14.0504 13.3333 13.1667V4.5H13.9999C14.1767 4.5 14.3463 4.42976 14.4713 4.30474C14.5963 4.17971 14.6666 4.01014 14.6666 3.83333C14.6666 3.65652 14.5963 3.48695 14.4713 3.36193C14.3463 3.2369 14.1767 3.16667 13.9999 3.16667ZM7.33325 1.83333H8.66659C9.0801 1.83384 9.48334 1.96225 9.82099 2.20096C10.1587 2.43967 10.4142 2.77699 10.5526 3.16667H5.44725C5.58564 2.77699 5.84119 2.43967 6.17884 2.20096C6.5165 1.96225 6.91974 1.83384 7.33325 1.83333ZM11.9999 13.1667C11.9999 13.6971 11.7892 14.2058 11.4141 14.5809C11.0391 14.956 10.5304 15.1667 9.99992 15.1667H5.99992C5.46949 15.1667 4.96078 14.956 4.58571 14.5809C4.21063 14.2058 3.99992 13.6971 3.99992 13.1667V4.5H11.9999V13.1667Z" fill="#797981"/>
<path d="M6.66667 12.5C6.84348 12.5 7.01305 12.4297 7.13807 12.3047C7.2631 12.1797 7.33333 12.0101 7.33333 11.8333V7.83329C7.33333 7.65648 7.2631 7.48691 7.13807 7.36189C7.01305 7.23686 6.84348 7.16663 6.66667 7.16663C6.48986 7.16663 6.32029 7.23686 6.19526 7.36189C6.07024 7.48691 6 7.65648 6 7.83329V11.8333C6 12.0101 6.07024 12.1797 6.19526 12.3047C6.32029 12.4297 6.48986 12.5 6.66667 12.5Z" fill="#797981"/>
<path d="M9.33341 12.5C9.51023 12.5 9.67979 12.4297 9.80482 12.3047C9.92984 12.1797 10.0001 12.0101 10.0001 11.8333V7.83329C10.0001 7.65648 9.92984 7.48691 9.80482 7.36189C9.67979 7.23686 9.51023 7.16663 9.33341 7.16663C9.1566 7.16663 8.98703 7.23686 8.86201 7.36189C8.73699 7.48691 8.66675 7.65648 8.66675 7.83329V11.8333C8.66675 12.0101 8.73699 12.1797 8.86201 12.3047C8.98703 12.4297 9.1566 12.5 9.33341 12.5Z" fill="#797981"/>
</g>
<defs>
<clipPath id="clip0_1_988">
<rect width="16" height="16" fill="white" transform="translate(0 0.5)"/>
</clipPath>
</defs>
</svg>
