<svg width="24" height="24" stroke="currentColor" viewBox="0 0 24 24" fill="none" xmlns="http://www.w3.org/2000/svg">
<g clip-path="url(#clip0_840_493)">
<path d="M22.3489 13.5922H16.7764C16.3542 13.5922 15.9492 13.7599 15.6506 14.0585C15.352 14.3571 15.1843 14.762 15.1843 15.1843C15.1843 16.0288 14.8488 16.8387 14.2516 17.4359C13.6545 18.0331 12.8445 18.3686 12 18.3686C11.1555 18.3686 10.3455 18.0331 9.74838 17.4359C9.1512 16.8387 8.81572 16.0288 8.81572 15.1843C8.81572 14.762 8.64797 14.3571 8.3494 14.0585C8.05081 13.7599 7.64585 13.5922 7.22358 13.5922H1.65108V20.7568C1.65108 21.179 1.81882 21.5841 2.1174 21.8826C2.41599 22.1811 2.82095 22.3489 3.24322 22.3489H20.7568C21.179 22.3489 21.5841 22.1811 21.8826 21.8826C22.1811 21.5841 22.3489 21.179 22.3489 20.7568V13.5922Z" stroke-width="1.7" stroke-linecap="round" stroke-linejoin="round"/>
<path d="M8.01965 7.22357L12 11.2039L15.9804 7.22357" stroke-width="1.7" stroke-linecap="round" stroke-linejoin="round"/>
<path d="M12 1.65106V11.2039" stroke-width="1.7" stroke-linecap="round" stroke-linejoin="round"/>
</g>
<defs>
<clipPath id="clip0_840_493">
<rect width="24" height="24" fill="white"/>
</clipPath>
</defs>
</svg>
