<svg width="20" height="20" viewBox="0 0 20 20" fill="none" xmlns="http://www.w3.org/2000/svg">
<path d="M1.82348 20C1.31805 20 0.887773 19.8228 0.532653 19.4683C0.177551 19.1139 0 18.6844 0 18.1799V4.05444C0 3.54993 0.177551 3.12045 0.532653 2.76599C0.887773 2.41154 1.31886 2.23432 1.82592 2.23432H9.21577C9.88159 2.23432 10.2147 3.03961 9.74347 3.50998C9.60343 3.64977 9.41364 3.72828 9.21577 3.72828H1.82592C1.74363 3.72828 1.66819 3.76251 1.59959 3.83096C1.53101 3.89943 1.49673 3.97473 1.49673 4.05686V18.1775C1.49673 18.2596 1.53101 18.3349 1.59959 18.4034C1.66819 18.4718 1.74363 18.506 1.82592 18.506H15.9726C16.0549 18.506 16.1304 18.4718 16.199 18.4034C16.2675 18.3349 16.3018 18.2596 16.3018 18.1775V10.7221C16.3018 10.5234 16.3809 10.3328 16.5215 10.1924C16.9932 9.72165 17.7986 10.0557 17.7986 10.7221V18.1775C17.7986 18.6836 17.621 19.1139 17.2659 19.4683C16.9108 19.8228 16.4805 20 15.9751 20H1.82348ZM7.28127 13.7303C6.72898 13.7303 6.28127 13.2826 6.28127 12.7303V10.5573C6.28127 10.2919 6.38681 10.0373 6.57463 9.84978L16.0035 0.433292C16.1606 0.279963 16.3286 0.16941 16.5076 0.101635C16.6866 0.0338786 16.8733 0 17.0678 0C17.2656 0 17.454 0.0330241 17.633 0.0990722C17.812 0.16512 17.9783 0.273101 18.1319 0.423014L19.5484 1.83795C19.6979 1.9947 19.8105 2.16668 19.8863 2.35389C19.9621 2.54111 20 2.73295 20 2.9294C20 3.12587 19.9674 3.31292 19.9023 3.49054C19.8371 3.66818 19.726 3.83367 19.569 3.987L10.1169 13.4375C9.92941 13.625 9.67509 13.7303 9.4099 13.7303H7.28127ZM7.77799 12.2364H9.19758L15.9171 5.5159L15.2071 4.80742L14.4636 4.09173L7.77799 10.7516V12.2364Z" fill="#B5B5B7"/>
</svg>
