<svg width="16" height="16" viewBox="0 0 16 16" fill="none" xmlns="http://www.w3.org/2000/svg">
<g clip-path="url(#clip0_691_1738)">
<path d="M14.8822 5.70642H13.8737V4.69789C13.8737 4.08155 13.3723 3.58011 12.756 3.58011H11.7474V2.57167C11.7474 1.95329 11.2458 1.45389 10.6297 1.45389H1.11778C0.502969 1.45392 0 1.95173 0 2.57167V9.1758C0 9.79214 0.501438 10.2936 1.11778 10.2936H2.12625V11.3021C2.12625 11.9185 2.62769 12.4199 3.24403 12.4199H4.2525V13.4284C4.2525 14.0447 4.75394 14.5461 5.37028 14.5461H14.8822C15.4986 14.5461 16 14.0447 16 13.4284V6.82417C16 6.20786 15.4986 5.70642 14.8822 5.70642ZM9.82288 2.57011L5.87375 6.44033L1.92472 2.5702L9.82288 2.57011ZM1.11628 9.1758L1.1165 3.34108L5.48309 7.62042C5.70013 7.83314 6.04744 7.83308 6.26441 7.62042L10.631 3.34105L10.6298 9.1773L1.11628 9.1758ZM3.24253 11.302V10.2936H10.6298C11.2461 10.2936 11.7475 9.79217 11.7475 9.1758V4.69658L12.7575 4.69689C12.7575 4.69689 12.7575 4.69723 12.7575 4.69792L12.756 11.3035L3.24253 11.302ZM14.8822 13.4298L5.36878 13.4283V12.4198H12.756C13.3724 12.4198 13.8738 11.9184 13.8738 11.302V6.82286L14.8837 6.82314C14.8837 6.82314 14.8838 6.82348 14.8838 6.82417L14.8822 13.4298Z"
      fill="#B5B5B7"/>
</g>
<defs>
<clipPath id="clip0_691_1738">
<rect width="16" height="16" fill="white"/>
</clipPath>
</defs>
</svg>
