<svg width="24" height="24" stroke="currentColor" viewBox="0 0 24 24" fill="none" xmlns="http://www.w3.org/2000/svg">
<g clip-path="url(#clip0_1128_8125)">
<path d="M22.3233 8.55971H20.8106V7.04691C20.8106 6.12239 20.0585 5.37024 19.134 5.37024H17.6212V3.85758C17.6212 2.93002 16.8687 2.18091 15.9446 2.18091H1.67667C0.754453 2.18096 0 2.92767 0 3.85758V13.7638C0 14.6883 0.752156 15.4404 1.67667 15.4404H3.18938V16.9532C3.18938 17.8778 3.94153 18.6299 4.86605 18.6299H6.37875V20.1426C6.37875 21.0671 7.13091 21.8193 8.05542 21.8193H22.3234C23.2479 21.8193 24 21.0671 24 20.1426V10.2363C24 9.31186 23.2478 8.55971 22.3233 8.55971ZM14.7343 3.85524L8.81063 9.66057L2.88708 3.85538L14.7343 3.85524ZM1.67442 13.7638L1.67475 5.01169L8.22464 11.4307C8.55019 11.7498 9.07116 11.7497 9.39661 11.4307L15.9465 5.01164L15.9447 13.766L1.67442 13.7638ZM4.8638 16.9532V15.4404H15.9447C16.8692 15.4404 17.6213 14.6883 17.6213 13.7638V7.04494L19.1362 7.04541C19.1362 7.04541 19.1362 7.04593 19.1362 7.04696L19.134 16.9554L4.8638 16.9532ZM22.3233 20.1448L8.05317 20.1425V18.6298H19.134C20.0586 18.6298 20.8107 17.8777 20.8107 16.9532V10.2344L22.3256 10.2348C22.3256 10.2348 22.3257 10.2353 22.3257 10.2363L22.3233 20.1448Z" />
</g>
<defs>
<clipPath id="clip0_1128_8125">
<rect width="24" height="24" fill="white"/>
</clipPath>
</defs>
</svg>
