<svg width="22" height="22" stroke="currentColor" viewBox="0 0 22 22" fill="none" xmlns="http://www.w3.org/2000/svg">
<path d="M5 12.3462L6.52763 19.2205C6.71308 20.055 7.79236 20.2871 8.30451 19.6026L10.3929 16.8114C10.7269 16.3651 11.3614 16.278 11.8033 16.6179L16.2251 20.0193C16.8125 20.4712 17.6701 20.1495 17.8154 19.4228L21.1296 2.85201C21.287 2.06487 20.4996 1.42241 19.76 1.73465L1.53157 9.43111C0.671432 9.79428 0.734079 11.0336 1.62646 11.3081L5 12.3462ZM5 12.3462L16.1479 6.67901C16.3091 6.59706 16.5 6.71418 16.5 6.89502V6.89502C16.5 6.962 16.4723 7.02599 16.4234 7.0718L8.74087 14.2742C8.58444 14.4208 8.47929 14.6139 8.44094 14.8248L7.5 20" stroke-width="1.7"/>
</svg>
