<svg width="24" height="24" viewBox="0 0 24 24" fill="none" xmlns="http://www.w3.org/2000/svg">
<path d="M12.2894 2C12.1867 1.99981 12.0853 2.02357 11.9926 2.06954C11.9088 2.11111 11.8341 2.16987 11.7728 2.24219C11.7599 2.25747 11.7458 2.27179 11.73 2.28401C11.6684 2.33149 11.5875 2.34533 11.513 2.32285C9.17334 1.61632 6.5296 2.18847 4.67982 4.04202C3.89208 4.81939 3.30607 5.79124 2.97623 6.86725C2.65567 7.91304 2.5872 9.02424 2.77619 10.1031C2.78639 10.1613 2.76642 10.2206 2.72458 10.2623L1.65496 11.3333C1.44805 11.5374 1.28327 11.7833 1.17067 12.0558C1.05807 12.3283 1 12.6218 1 12.9184C1 13.215 1.05807 13.5085 1.17067 13.781C1.28327 14.0535 1.44805 14.2993 1.65496 14.5034C1.95081 14.8003 2.30863 14.9967 2.68638 15.0927C3.21621 15.2273 3.73811 15.5745 4.06757 16.0108C4.12934 16.0926 4.19747 16.171 4.27202 16.2456C4.45472 16.4288 4.66114 16.5736 4.88134 16.6802C5.35895 16.9114 5.78407 17.3368 6.01439 17.8148C6.12077 18.0356 6.26542 18.2427 6.44833 18.4261C6.63003 18.6083 6.83545 18.7528 7.05458 18.8594C7.5335 19.0924 7.96129 19.5204 8.19337 19.9998C8.29977 20.2196 8.4441 20.4257 8.62602 20.6081C9.02957 21.0064 9.55821 21.2391 10.1141 21.2633C10.3869 21.2751 10.6573 21.2363 10.9132 21.1509C11.369 20.9989 11.9097 20.9995 12.2495 21.3392C13.1283 22.2203 14.5535 22.2203 15.4323 21.3392C15.6153 21.1563 15.76 20.9496 15.8667 20.729C16.0966 20.2533 16.5213 19.8316 16.9959 19.5994C17.2168 19.4913 17.4213 19.346 17.6004 19.1672C17.7844 18.9827 17.9297 18.7743 18.0363 18.5521C18.264 18.0773 18.6838 17.6542 19.1553 17.4199C19.3716 17.3124 19.5719 17.1692 19.7479 16.9938C19.8324 16.9095 19.9088 16.8201 19.9769 16.7265C20.3016 16.2808 20.8242 15.9198 21.3554 15.772C21.3793 15.7653 21.4032 15.7582 21.427 15.7507C21.7704 15.6426 22.0846 15.4521 22.3443 15.1946C22.5514 14.9904 22.7164 14.7445 22.8291 14.4719C22.9419 14.1993 23 13.9056 23 13.6088C23 13.312 22.9419 13.0184 22.8291 12.7457C22.7164 12.4731 22.5514 12.2272 22.3443 12.023L21.7587 11.4368C21.5089 11.1868 21.4097 10.8235 21.4976 10.4812L21.5576 10.248C21.9658 8.64238 21.7591 6.93459 20.9809 5.48428C19.833 3.33374 17.6059 2.00571 15.1975 2.00571H13.5086C13.4359 2.00196 13.3631 2.00006 13.2903 2H12.2894ZM15.6565 7.3074C15.657 7.30685 15.6579 7.30684 15.6585 7.30738L18.9579 10.6133C18.9591 10.6144 18.9604 10.6155 18.9618 10.6165C18.9631 10.6174 18.9644 10.6185 18.9656 10.6197L21.3543 13.014C21.432 13.0906 21.4938 13.1829 21.5361 13.2851C21.5784 13.3874 21.6002 13.4975 21.6002 13.6088C21.6002 13.7201 21.5784 13.8302 21.5361 13.9325C21.4938 14.0347 21.432 14.127 21.3543 14.2036C21.1939 14.3615 20.9814 14.4496 20.7605 14.4496C20.5396 14.4496 20.327 14.3615 20.1666 14.2036L18.3528 12.3872C18.2199 12.2545 18.0428 12.1804 17.8585 12.1804C17.6743 12.1804 17.4972 12.2545 17.3642 12.3872L17.345 12.4043C17.2803 12.4681 17.2287 12.5449 17.1935 12.6301C17.1582 12.7153 17.1401 12.8071 17.1401 12.8998C17.1401 12.9925 17.1582 13.0843 17.1935 13.1695C17.2287 13.2547 17.2803 13.3315 17.345 13.3953L18.7592 14.8119C19.0888 15.1403 19.0888 15.6744 18.7592 16.0042C18.6134 16.148 18.424 16.2344 18.2236 16.2487C18.0231 16.2631 17.8242 16.2044 17.6608 16.0828C17.5244 15.9803 17.3579 15.9308 17.1901 15.9428C17.0223 15.9548 16.8638 16.0276 16.7422 16.1485C16.6234 16.2666 16.5516 16.4269 16.5412 16.5976C16.5308 16.7682 16.5824 16.9367 16.6859 17.0695C16.8092 17.2301 16.87 17.4329 16.8562 17.6379C16.8425 17.8429 16.7552 18.035 16.6118 18.1762C16.4639 18.3221 16.2712 18.409 16.0677 18.4215C15.8642 18.434 15.663 18.3714 15.4996 18.2448C15.3639 18.1389 15.1967 18.0863 15.0273 18.0963C14.858 18.1062 14.6975 18.178 14.5741 18.299C14.4538 18.417 14.3808 18.578 14.3698 18.7496C14.3589 18.9213 14.4108 19.0909 14.5151 19.2244C14.6412 19.3871 14.7038 19.5932 14.6903 19.8018C14.6768 20.0103 14.5883 20.2059 14.4423 20.3496C14.2798 20.51 14.0643 20.5994 13.8402 20.5994C13.6162 20.5994 13.4007 20.51 13.2381 20.3496L12.8604 19.9713C12.7406 19.8513 12.7407 19.657 12.8606 19.5371C13.0677 19.3329 13.2326 19.087 13.3454 18.8144C13.4581 18.5418 13.5162 18.2481 13.5162 17.9513C13.5162 17.6545 13.4581 17.3609 13.3454 17.0882C13.2326 16.8156 13.0677 16.5697 12.8606 16.3655C12.6807 16.1863 12.4754 16.0406 12.2537 15.9323C11.7758 15.6989 11.3479 15.2727 11.1177 14.7932C11.0093 14.5675 10.8633 14.3608 10.6842 14.1836C10.5043 14.0046 10.2991 13.8591 10.0774 13.7511C9.59889 13.5178 9.17013 13.0913 8.93942 12.6116C8.83109 12.3863 8.68532 12.18 8.50656 12.003C8.24277 11.7419 7.92299 11.5499 7.57366 11.4429C7.54149 11.433 7.50916 11.4239 7.47668 11.4156C6.94658 11.2791 6.42304 10.9322 6.09308 10.4955C6.03089 10.4131 5.9629 10.3352 5.88949 10.2623C5.65495 10.0296 5.37546 9.85135 5.06959 9.73958C4.56509 9.55521 4.05124 9.19086 4.07529 8.65427C4.09852 8.13589 4.1944 7.62207 4.36127 7.12937C4.63099 6.33303 5.0785 5.61458 5.66706 5.03304C6.26179 4.44213 6.97485 3.99537 7.75514 3.72478C8.60092 3.43149 8.94939 4.4094 8.23832 4.95323L8.18251 4.99591C7.9269 5.18908 7.71158 5.43411 7.54955 5.71623C7.38753 5.99834 7.28216 6.31168 7.23981 6.63732C7.19746 6.96297 7.21901 7.29416 7.30316 7.6109C7.38731 7.92764 7.53231 8.22336 7.7294 8.4802C8.12801 8.99998 8.70397 9.33992 9.33745 9.42929C9.97093 9.51866 10.6131 9.35057 11.1305 8.96L13.0257 7.513C13.2 7.37991 13.4132 7.30782 13.6325 7.30782H15.6555C15.6559 7.30782 15.6563 7.30767 15.6565 7.3074ZM8.99537 6.14544L12.2856 3.63318C12.4599 3.50009 12.6732 3.42799 12.8925 3.42799H13.2903C13.3576 3.42761 13.425 3.42952 13.4922 3.4337H15.1975C17.1253 3.4337 18.8842 4.49755 19.7808 6.17828C20.3877 7.31496 20.547 8.63585 20.2298 9.88248C20.2279 9.88888 20.2199 9.89095 20.2152 9.88622L16.436 6.08832C16.3076 5.95433 16.1332 5.87883 15.9513 5.87841H13.0679C12.9222 5.8787 12.7803 5.92721 12.6628 6.01692L10.3176 7.80762C10.0873 7.97917 9.80259 8.05269 9.52182 8.01313C9.24106 7.97358 8.98544 7.82395 8.80726 7.59484C8.72423 7.48847 8.66301 7.36555 8.62738 7.23364C8.59175 7.10173 8.58246 6.96364 8.60008 6.82786C8.6177 6.69208 8.66186 6.56148 8.72985 6.44412C8.79783 6.32676 8.88819 6.22511 8.99537 6.14544ZM9.60158 18.4404C9.60202 18.4404 9.60244 18.4402 9.60274 18.4399L9.616 18.4261L10.6842 17.3551L10.6966 17.3437C10.8579 17.1912 11.0687 17.1077 11.2867 17.1101C11.5047 17.1125 11.7138 17.2005 11.8719 17.3565C11.9496 17.4331 12.0114 17.5254 12.0537 17.6276C12.096 17.7299 12.1178 17.84 12.1178 17.9513C12.1178 18.0626 12.096 18.1727 12.0537 18.275C12.0114 18.3772 11.9496 18.4695 11.8719 18.5461L10.8023 19.6171C10.6419 19.775 10.4294 19.8631 10.2085 19.8631C9.98755 19.8631 9.77503 19.775 9.61462 19.6171C9.53799 19.5416 9.4767 19.4509 9.4344 19.3504C9.3921 19.2498 9.36964 19.1415 9.36836 19.0317C9.36708 18.922 9.387 18.8131 9.42694 18.7115C9.4668 18.6102 9.52579 18.5181 9.60042 18.4409C9.60072 18.4406 9.60114 18.4404 9.60158 18.4404ZM9.70799 16.3527L9.69426 16.3655L8.62602 17.4365L8.61228 17.4494C8.45089 17.6013 8.24028 17.6842 8.02261 17.6816C7.80493 17.6789 7.59625 17.5909 7.43831 17.4351C7.36153 17.3593 7.30021 17.2682 7.25801 17.1673C7.21581 17.0663 7.1936 16.9575 7.1927 16.8475C7.1918 16.7374 7.21224 16.6282 7.25279 16.5265C7.29333 16.4248 7.35316 16.3327 7.4287 16.2556L7.43831 16.2456L8.50656 15.1746L8.51617 15.1646C8.67728 15.0109 8.88846 14.9264 9.10711 14.9283C9.32575 14.9301 9.53558 15.0181 9.69426 15.1746C9.77111 15.2501 9.83257 15.3408 9.875 15.4415C9.91743 15.5422 9.93995 15.6507 9.94123 15.7606C9.94251 15.8705 9.92253 15.9796 9.88246 16.0813C9.84239 16.183 9.78306 16.2753 9.70799 16.3527ZM7.51795 14.1836L6.44833 15.2546L6.43872 15.2646C6.27761 15.4183 6.06643 15.5028 5.84778 15.5009C5.62914 15.499 5.41931 15.411 5.26063 15.2546C5.18298 15.178 5.12113 15.0857 5.07887 14.9835C5.03661 14.8812 5.01481 14.7711 5.01481 14.6598C5.01481 14.5485 5.03661 14.4384 5.07887 14.3361C5.12113 14.2339 5.18298 14.1416 5.26063 14.065L6.32888 12.9941C6.48935 12.8357 6.70217 12.7474 6.92341 12.7474C7.14466 12.7474 7.35747 12.8357 7.51795 12.9941C7.59495 13.0699 7.65645 13.161 7.69877 13.2621C7.7411 13.3632 7.76338 13.4721 7.76427 13.5824C7.76517 13.6927 7.74467 13.802 7.704 13.9038C7.66332 14.0056 7.60331 14.0979 7.52756 14.175L7.51795 14.1836ZM4.90089 12.4429L3.83264 13.5138C3.67232 13.6726 3.45945 13.7611 3.2381 13.7611C3.01676 13.7611 2.80389 13.6726 2.64357 13.5138C2.5657 13.4372 2.50367 13.3449 2.46128 13.2425C2.41889 13.1401 2.39703 13.0298 2.39703 12.9184C2.39703 12.8069 2.41889 12.6966 2.46128 12.5942C2.50367 12.4918 2.5657 12.3995 2.64357 12.3229L3.71318 11.2519C3.87359 11.0939 4.08611 11.0059 4.30704 11.0059C4.52796 11.0059 4.74048 11.0939 4.90089 11.2519C4.97876 11.3285 5.04078 11.4208 5.08317 11.5232C5.12556 11.6256 5.14743 11.7359 5.14743 11.8474C5.14743 11.9589 5.12556 12.0692 5.08317 12.1715C5.04078 12.2739 4.97876 12.3663 4.90089 12.4429Z" fill="white"/>
</svg>
