<svg width="16" height="16" viewBox="0 0 16 16" fill="none" xmlns="http://www.w3.org/2000/svg">
<g clip-path="url(#clip0_883_7408)">
<path d="M6.78693 14.6762C5.98517 15.0152 5.09626 15.0903 4.24894 14.8907C3.40162 14.691 2.6399 14.2267 2.07407 13.5653L1.48017 12.9716C1.22183 12.7643 1.05364 12.4652 1.01078 12.1368C0.967945 11.8084 1.05375 11.4762 1.25028 11.2096L3.16607 9.2943C3.43275 9.09783 3.76509 9.01205 4.09357 9.05489C4.42205 9.09772 4.72126 9.26586 4.92861 9.52413C5.13595 9.78242 5.43516 9.95056 5.76364 9.99339C6.09213 10.0362 6.42446 9.95043 6.69114 9.75396L9.75641 6.68954C9.95294 6.42294 10.0387 6.0907 9.99591 5.76231C9.95305 5.43392 9.78486 5.13479 9.52652 4.9275C9.26817 4.72021 9.09999 4.4211 9.05713 4.09269C9.01429 3.7643 9.1001 3.43206 9.29662 3.16546L11.2124 1.2502C11.4791 1.05373 11.8114 0.967943 12.1399 1.01079C12.4684 1.05361 12.7676 1.22175 12.975 1.48003L13.5688 2.07376C14.228 2.64121 14.6905 3.40268 14.8901 4.24908C15.0897 5.09545 15.0161 5.98327 14.6799 6.78531C12.7374 10.0239 10.0264 12.7341 6.78693 14.6762Z" stroke="#B5B5B7" stroke-width="1.2" stroke-linecap="round" stroke-linejoin="round"/>
</g>
<defs>
<clipPath id="clip0_883_7408">
<rect width="16" height="16" fill="white"/>
</clipPath>
</defs>
</svg>
