<svg width="24" height="24" stroke="currentColor" viewBox="0 0 24 24" fill="none" xmlns="http://www.w3.org/2000/svg">
<path d="M10.267 21.5374C9.12167 22.0217 7.8518 22.129 6.64134 21.8439C5.43089 21.5585 4.34271 20.8953 3.53438 19.9505L2.68596 19.1023C2.3169 18.8062 2.07663 18.3789 2.0154 17.9097C1.95421 17.4406 2.07679 16.966 2.35754 16.5851L5.09439 13.849C5.47536 13.5683 5.95012 13.4458 6.41938 13.507C6.88864 13.5682 7.31609 13.8084 7.61229 14.1773C7.9085 14.5463 8.33595 14.7865 8.80521 14.8477C9.27447 14.9089 9.74923 14.7863 10.1302 14.5057L14.5092 10.1279C14.7899 9.74705 14.9125 9.27242 14.8513 8.80329C14.7901 8.33416 14.5498 7.90684 14.1807 7.61071C13.8117 7.31459 13.5714 6.88729 13.5102 6.41814C13.449 5.94901 13.5716 5.47438 13.8523 5.09351L16.5892 2.35742C16.9701 2.07675 17.4449 1.9542 17.9142 2.01541C18.3834 2.07659 18.8109 2.31679 19.1071 2.68575L19.9555 3.53394C20.8971 4.34459 21.5578 5.4324 21.843 6.64154C22.1281 7.85064 22.0231 9.11896 21.5427 10.2647C18.7677 14.8913 14.8949 18.763 10.267 21.5374Z" stroke-width="1.7" stroke-linecap="round" stroke-linejoin="round"/>
</svg>
