<svg width="24" height="24" stroke="currentColor" viewBox="0 0 24 24" fill="none" xmlns="http://www.w3.org/2000/svg">
<path d="M20.4615 6.6153H3.53846C2.68879 6.6153 2 7.3041 2 8.15376V20.4614C2 21.3111 2.68879 21.9999 3.53846 21.9999H20.4615C21.3112 21.9999 22 21.3111 22 20.4614V8.15376C22 7.3041 21.3112 6.6153 20.4615 6.6153Z" stroke-width="1.71" stroke-linecap="round" stroke-linejoin="round"/>
<path d="M16.6154 6.61538V3.53846C16.6154 3.13043 16.4533 2.73912 16.1648 2.4506C15.8763 2.16209 15.485 2 15.0769 2H8.92309C8.51506 2 8.12375 2.16209 7.83523 2.4506C7.54672 2.73912 7.38463 3.13043 7.38463 3.53846V6.61538" stroke-width="1.71" stroke-linecap="round" stroke-linejoin="round"/>
<path d="M3 18H22" stroke-width="1.71" stroke-linecap="round"/>
</svg>
