<svg width="16" height="16" viewBox="0 0 16 16" fill="none" xmlns="http://www.w3.org/2000/svg">
<path d="M14.843 1.61849C14.6532 1.46058 14.4241 1.35709 14.1801 1.31903C13.9362 1.28097 13.6864 1.30976 13.4575 1.40235L1.51028 6.22592C1.25478 6.33104 1.03729 6.51138 0.886677 6.74299C0.736066 6.97461 0.659456 7.24656 0.667014 7.52273C0.674572 7.79891 0.765942 8.06626 0.928996 8.28929C1.09205 8.51233 1.31908 8.6805 1.57994 8.77149L3.99661 9.61198L5.34361 14.0664C5.36192 14.1259 5.38848 14.1826 5.42253 14.2347C5.4277 14.2427 5.43498 14.2486 5.44048 14.2564C5.47981 14.3113 5.52735 14.3598 5.58143 14.4002C5.59681 14.412 5.61154 14.4229 5.62798 14.4334C5.69127 14.4753 5.76135 14.506 5.83513 14.5241L5.84302 14.5248L5.8475 14.5267C5.89185 14.5357 5.937 14.5403 5.98226 14.5403C5.98662 14.5403 5.99048 14.5383 5.9948 14.5382C6.06311 14.537 6.13082 14.5252 6.19552 14.5033C6.21058 14.4982 6.22348 14.4896 6.23808 14.4834C6.28633 14.4634 6.33205 14.4378 6.37428 14.4071C6.40809 14.3786 6.44192 14.3501 6.47576 14.3216L8.2772 12.3327L10.964 14.4141C11.2006 14.5982 11.4917 14.6983 11.7915 14.6986C12.1056 14.6982 12.4101 14.5898 12.6538 14.3916C12.8975 14.1934 13.0656 13.9174 13.1301 13.61L15.3052 2.9323C15.3545 2.69197 15.3375 2.44277 15.2561 2.21135C15.1747 1.97994 15.0319 1.77501 14.843 1.61849ZM6.24661 9.82422C6.15417 9.91629 6.09098 10.0336 6.06497 10.1615L5.85863 11.1641L5.33592 9.43542L8.04609 8.02412L6.24661 9.82422ZM11.7811 13.36L8.60598 10.9004C8.47314 10.7977 8.30651 10.7489 8.13928 10.7636C7.97205 10.7783 7.8165 10.8555 7.70364 10.9798L7.1267 11.6166L7.33059 10.6256L12.0526 5.90363C12.1653 5.79107 12.234 5.64187 12.2462 5.48304C12.2584 5.32422 12.2133 5.16629 12.1191 5.03784C12.0249 4.9094 11.8878 4.81894 11.7326 4.78285C11.5775 4.74677 11.4145 4.76744 11.2733 4.84113L4.49644 8.36955L2.01354 7.46094L13.9992 2.666L11.7811 13.36Z" fill="#B5B5B7"/>
</svg>
