<svg width="24" height="24" stroke="currentColor"  viewBox="0 0 24 24" fill="none" xmlns="http://www.w3.org/2000/svg">
<path d="M6 13.3462L7.52763 20.2205C7.71308 21.055 8.79236 21.2871 9.30451 20.6026L11.3929 17.8114C11.7269 17.3651 12.3614 17.278 12.8033 17.6179L17.2251 21.0193C17.8125 21.4712 18.6701 21.1495 18.8154 20.4228L22.1296 3.85201C22.287 3.06487 21.4996 2.42241 20.76 2.73465L2.53157 10.4311C1.67143 10.7943 1.73408 12.0336 2.62646 12.3081L6 13.3462ZM6 13.3462L17.1479 7.67901C17.3091 7.59706 17.5 7.71418 17.5 7.89502V7.89502C17.5 7.962 17.4723 8.02599 17.4234 8.0718L9.74087 15.2742C9.58444 15.4208 9.47929 15.6139 9.44094 15.8248L8.5 21" stroke-width="1.7"/>
</svg>
